<svg xmlns="http://www.w3.org/2000/svg" viewBox="0 0 512 512">
  <defs>
    <linearGradient id="grad" x1="0%" y1="0%" x2="100%" y2="100%">
      <stop offset="0%" style="stop-color:#6366f1;stop-opacity:1" />
      <stop offset="100%" style="stop-color:#9333ea;stop-opacity:1" />
    </linearGradient>
  </defs>
  <rect width="512" height="512" rx="128" fill="#0f172a" />
  <path d="M368 224c0-53-43-96-96-96-33.3 0-62.7 16.9-80.4 42.6C182.9 164.7 171.7 160 160 160c-44.2 0-80 35.8-80 80 0 16.4 4.9 31.7 13.4 44.4C85.2 291 80 306.9 80 324c0 33.1 26.9 60 60 60 4.1 0 8.1-.4 11.9-1.2 11.7 20 32.5 33.2 56.1 33.2 15.6 0 30-5.8 41.2-15.4C260.6 409.6 276.7 416 294 416c44.2 0 80-35.8 80-80 0-8.6-1.4-16.9-3.9-24.7C370.1 311 368 311 368 311v-87z" fill="url(#grad)" stroke="#ffffff" stroke-width="12" stroke-linejoin="round" />
  <path d="M294 360c-13.3 0-24-10.7-24-24 0-13.3 10.7-24 24-24s24 10.7 24 24c0 13.3-10.7 24-24 24zm-64 0c-13.3 0-24-10.7-24-24 0-13.3 10.7-24 24-24 13.3 0 24 10.7 24 24 0 13.3-10.7 24-24 24zm-64-64c-13.3 0-24-10.7-24-24 0-13.3 10.7-24 24-24 13.3 0 24 10.7 24 24 0 13.3-10.7 24-24 24zm128 0c-13.3 0-24-10.7-24-24 0-13.3 10.7-24 24-24 13.3 0 24 10.7 24 24 0 13.3-10.7 24-24 24zm64-64c-13.3 0-24-10.7-24-24 0-13.3 10.7-24 24-24s24 10.7 24 24c0 13.3-10.7 24-24 24z" fill="#ffffff" opacity="0.5"/>
</svg>
